HIERARCHY
ROOT Hips
{
	OFFSET 0.00000 0.00000 0.00000
	CHANNELS 6 Xposition Yposition Zposition Zrotation Yrotation Xrotation 
	JOINT LHipJoint
	{
		OFFSET 0 0 0
		CHANNELS 3 Zrotation Yrotation Xrotation
		JOINT LeftHip
		{
			OFFSET 1.86795 -1.59681 0.65681
			CHANNELS 3 Zrotation Yrotation Xrotation
			JOINT LeftKnee
			{
				OFFSET 2.30491 -6.33268 0.00000
				CHANNELS 3 Zrotation Yrotation Xrotation
				JOINT LeftAnkle
				{
					OFFSET 2.46780 -6.78022 0.00000
					CHANNELS 3 Zrotation Yrotation Xrotation
					JOINT LeftToe
					{
						OFFSET 0.07897 -0.21698 1.59652
						CHANNELS 3 Zrotation Yrotation Xrotation
						End Site
						{
							OFFSET 0.00000 -0.00000 0.82310
						}
					}
				}
			}
		}
	}
	JOINT RHipJoint
	{
		OFFSET 0 0 0
		CHANNELS 3 Zrotation Yrotation Xrotation
		JOINT RightHip
		{
			OFFSET -1.93650 -1.59681 0.65681
			CHANNELS 3 Zrotation Yrotation Xrotation
			JOINT RightKnee
			{
				OFFSET -2.29410 -6.30299 0.00000
				CHANNELS 3 Zrotation Yrotation Xrotation
				JOINT RightAnkle
				{
					OFFSET -2.48738 -6.83403 0.00000
					CHANNELS 3 Zrotation Yrotation Xrotation
					JOINT RightToe
					{
						OFFSET -0.08699 -0.23899 1.89395
						CHANNELS 3 Zrotation Yrotation Xrotation
						End Site
						{
							OFFSET -0.00000 -0.00000 0.96904
						}
					}
				}
			}
		}
	}
	JOINT lowerback
	{
		OFFSET 0 0 0
		CHANNELS 3 Zrotation Yrotation Xrotation
		JOINT Chest
		{
			OFFSET 0.03629 1.99740 -0.07548
			CHANNELS 3 Zrotation Yrotation Xrotation
			JOINT Chest2
			{
				OFFSET 0.03970 1.94298 0.17218
				CHANNELS 3 Zrotation Yrotation Xrotation
				JOINT lowerneck
				{
					OFFSET 0 0 0
					CHANNELS 3 Zrotation Yrotation Xrotation
					JOINT Neck
					{
						OFFSET -0.05054 1.79469 0.04241
						CHANNELS 3 Zrotation Yrotation Xrotation
						JOINT Head
						{
							OFFSET 0.05195 1.78475 -0.22133
							CHANNELS 3 Zrotation Yrotation Xrotation
							End Site
							{
								OFFSET 0.02420 1.80711 -0.07950
							}
						}
					}
				}
				JOINT LeftCollar
				{
					OFFSET 0 0 0
					CHANNELS 3 Zrotation Yrotation Xrotation
					JOINT LeftShoulder
					{
						OFFSET 2.92134 1.19850 0.36056
CHANNELS 3 Zrotation Xrotation Yrotation
						JOINT LeftElbow
						{
OFFSET 0 -4.841370 0.000000
CHANNELS 3 Zrotation Xrotation Yrotation
							JOINT LeftWrist
							{
OFFSET 0 -3.245200 -0.000000
CHANNELS 3 Zrotation Xrotation Yrotation
								JOINT lhand
								{
									OFFSET 0 0 0
CHANNELS 3 Zrotation Xrotation Yrotation
									JOINT LFingers
									{
OFFSET 0 -0.521220 0.000000
CHANNELS 3 Zrotation Xrotation Yrotation
										End Site
										{
OFFSET 0 -0.420220 0.000000
										}
									}
								}
								JOINT LThumb
								{
OFFSET 0 0.000000 0.000000
CHANNELS 3 Zrotation Xrotation Yrotation
									End Site
									{
OFFSET 0 -0.426640 0.426640
									}
								}
							}
						}
					}
				}
				JOINT RightCollar
				{
					OFFSET 0 0 0
					CHANNELS 3 Zrotation Yrotation Xrotation
					JOINT RightShoulder
					{
						OFFSET -2.84327 1.20795 0.50191
CHANNELS 3 Zrotation Xrotation Yrotation
						JOINT RightElbow
						{
OFFSET 0 -4.722840 0.000000
CHANNELS 3 Zrotation Xrotation Yrotation
							JOINT RightWrist
							{
OFFSET 0 -3.234590 0.000000
CHANNELS 3 Zrotation Xrotation Yrotation
								JOINT rhand
								{
									OFFSET 0 0 0
CHANNELS 3 Zrotation Xrotation Yrotation
									JOINT RFingers
									{
OFFSET 0 -0.307420 0.000000
CHANNELS 3 Zrotation Xrotation Yrotation
										End Site
										{
OFFSET 0 -0.247850 0.000000
										}
									}
								}
								JOINT RThumb
								{
OFFSET 0 0.000000 0.000000
CHANNELS 3 Zrotation Xrotation Yrotation
									End Site
									{
OFFSET 0 -0.251630 0.251630
									}
								}
							}
						}
					}
				}
			}
		}
	}
}
MOTION
Frames: 7
Frame Time: 0.008333333333333333
4.646148 15.001578 -15.538773 -177.171464 -175.416866 -179.978245 0.000000 0.000000 0.000000 -25.920551 -0.921652 -28.064109 8.046717 16.153502 52.730742 2.512033 12.944940 -36.733359 1.037847 6.479196 18.181339 0.000000 0.000000 0.000000 20.955882 12.622419 -26.126372 -9.399943 -17.058315 57.463262 -1.675327 -20.162579 -38.444220 -1.653926 -8.102547 23.027218 0.707786 -0.802082 0.512152 0.272252 -1.070093 0.867597 -0.118080 -0.531699 0.592902 -7.426468 2.674348 1.277287 6.130900 3.274913 7.216242 3.346336 1.567402 1.854551 0.000000 0.000000 0.000000 -1.609583 1.746746 -3.830347 3.786809 -6.525814 0.215959 -31.236957 11.022853 -25.841730 0.000000 0.000000 0.000000 -7.125000 0.000000 0.000000 -55.727348 47.820357 5.582362 0.000000 0.000000 0.000000 -2.240241 0.830070 30.299128 -6.431607 -10.980041 -0.618818 -11.921435 -31.724795 -22.016179 0.000000 0.000000 0.000000 7.125000 0.000000 0.000000 10.633319 7.839388 9.247829
4.585659 14.991466 -15.498522 -177.557962 -175.899553 -179.308080 0.000000 0.000000 0.000000 -25.269267 -1.078811 -28.916779 8.210413 16.271824 53.316917 2.409814 13.427258 -36.545446 0.785729 5.657848 15.794955 0.000000 0.000000 0.000000 21.337613 12.007571 -26.969407 -9.472242 -17.102227 57.709346 -1.936414 -19.316925 -38.937871 -1.717428 -8.251020 23.479005 0.742158 -0.841639 0.738779 0.335633 -1.118738 0.612334 -0.066264 -0.557552 0.204903 -7.671595 2.610421 1.519049 6.277439 3.177833 6.801922 3.429678 1.515965 1.677666 0.000000 0.000000 0.000000 -1.567875 2.015895 -4.511661 3.412079 -5.885585 0.175458 -22.152428 14.570675 -23.371176 0.000000 0.000000 0.000000 -7.125000 0.000000 0.000000 -47.483021 47.498192 3.756094 0.000000 0.000000 0.000000 -2.092670 1.247506 29.451190 -6.492093 -11.080389 -0.630403 -14.817228 -32.496059 -22.837416 0.000000 0.000000 0.000000 7.125000 0.000000 0.000000 8.854433 6.674250 7.861492
4.553364 15.000453 -15.461801 -176.834097 -176.009185 -178.800043 0.000000 0.000000 0.000000 -25.959257 -1.983111 -28.729864 8.040280 16.148730 52.707556 2.308033 13.957135 -36.401996 0.791391 5.677061 15.850766 0.000000 0.000000 0.000000 20.658582 12.791094 -27.317468 -9.571305 -17.161633 58.045712 -1.992659 -19.687730 -39.540492 -1.619663 -8.024079 22.787391 0.034401 -0.767996 0.756416 0.045761 -1.023991 0.755051 0.031971 -0.511968 0.348803 -7.204325 2.530090 0.642901 6.000393 3.123926 7.451259 3.279104 1.501703 2.061969 0.000000 0.000000 0.000000 -1.440219 1.637117 -5.201329 3.286482 -5.670589 0.162801 -24.552949 12.096728 -24.462873 0.000000 0.000000 0.000000 -7.125000 0.000000 0.000000 -50.072564 47.934960 4.787257 0.000000 0.000000 0.000000 -2.023754 0.689007 30.384989 -6.266874 -10.706632 -0.587803 -14.091079 -30.984994 -21.319942 0.000000 0.000000 0.000000 7.125000 0.000000 0.000000 9.241741 8.291158 7.919224
4.549242 15.020836 -15.417540 -176.623504 -176.134526 -178.789257 0.000000 0.000000 0.000000 -26.214465 -2.493076 -28.069273 7.892317 16.039437 52.173753 2.242165 14.483016 -36.453401 0.671481 5.239932 14.594227 0.000000 0.000000 0.000000 20.528225 13.569915 -26.784733 -9.513367 -17.126936 57.849089 -1.907288 -20.317991 -39.708842 -1.906540 -8.667120 24.760469 0.294137 -0.577454 0.755770 0.005423 -0.769498 1.099615 -0.158210 -0.382637 0.697776 -7.388052 2.615625 1.008230 6.255800 3.209747 7.165153 3.387667 1.542736 1.889959 0.000000 0.000000 0.000000 -1.448493 1.392602 -6.295070 3.535166 -6.096106 0.188301 -23.017206 12.465801 -23.896960 0.000000 0.000000 0.000000 -7.125000 0.000000 0.000000 -48.514035 47.758361 4.280365 0.000000 0.000000 0.000000 -1.926649 0.724585 30.249504 -6.439260 -10.992366 -0.620745 -12.900852 -31.705506 -24.431089 0.000000 0.000000 0.000000 7.125000 0.000000 0.000000 10.115592 5.319382 9.283295
4.537276 15.075149 -15.378236 -176.086324 -176.364633 -178.034896 0.000000 0.000000 0.000000 -26.786393 -2.550993 -28.022752 7.490677 15.731546 50.706475 1.747367 15.563999 -34.656410 0.361931 3.864441 10.695703 0.000000 0.000000 0.000000 19.890180 13.999433 -27.380525 -9.510284 -17.125070 57.838679 -2.210824 -19.412421 -40.321633 -2.169790 -9.210371 26.456199 0.054032 -0.550235 0.553264 0.078677 -0.733860 0.786007 0.051035 -0.366893 0.494324 -7.034574 2.719445 1.674631 5.862286 3.334289 6.727865 3.159462 1.600744 1.626606 0.000000 0.000000 0.000000 -1.495869 2.100082 -7.002777 3.814208 -6.572542 0.219085 -27.374057 8.316057 -25.528020 0.000000 0.000000 0.000000 -7.125000 0.000000 0.000000 -52.937762 48.252060 5.808003 0.000000 0.000000 0.000000 -2.268101 1.069339 30.937900 -6.568300 -11.206621 -0.645163 -12.674684 -31.976031 -23.368737 0.000000 0.000000 0.000000 7.125000 0.000000 0.000000 10.208821 6.406196 9.156119
4.501466 15.136922 -15.336333 -175.989591 -176.604017 -177.490549 0.000000 0.000000 0.000000 -26.672085 -1.745290 -28.083976 7.175420 15.477793 49.534612 1.811212 14.186679 -33.867968 0.369770 3.904860 10.809267 0.000000 0.000000 0.000000 19.856399 13.797574 -27.510169 -9.315792 -17.006720 57.176112 -2.244471 -18.892487 -40.032524 -2.422652 -9.695805 27.997318 0.330741 -0.708690 0.420282 0.260320 -0.945478 0.678527 0.081162 -0.471836 0.457578 -6.901539 2.823585 1.091961 5.874353 3.507765 6.823289 3.154101 1.697628 1.751069 0.000000 0.000000 0.000000 -1.655438 2.129522 -7.152345 3.847790 -6.629890 0.222949 -27.783765 8.080939 -26.055856 0.000000 0.000000 0.000000 -7.125000 0.000000 0.000000 -53.656348 48.557196 6.494667 0.000000 0.000000 0.000000 -2.285151 0.794224 29.320281 -6.324887 -10.803002 -0.598670 -12.225823 -30.283986 -22.391336 0.000000 0.000000 0.000000 7.125000 0.000000 0.000000 10.453249 7.432350 9.171182
4.446294 15.179872 -15.295117 -175.373137 -176.615770 -177.105492 0.000000 0.000000 0.000000 -27.152727 -0.978734 -28.088830 6.908113 15.254017 48.526005 1.675721 13.830364 -32.788037 0.256873 3.260738 9.005556 0.000000 0.000000 0.000000 19.258683 13.434404 -27.740110 -9.209452 -16.940602 56.811690 -2.390897 -17.791592 -39.803761 -2.669271 -10.138629 29.427607 0.332926 -0.778070 0.221624 0.293502 -1.038711 0.574699 0.111783 -0.518584 0.463125 -6.584781 2.812416 0.757289 5.587170 3.534494 6.478507 2.997235 1.719647 1.704430 0.000000 0.000000 0.000000 -1.626610 1.987517 -7.391605 3.464706 -5.975568 0.180895 -28.159909 8.296389 -25.139577 0.000000 0.000000 0.000000 -7.125000 0.000000 0.000000 -53.141362 47.840274 5.137476 0.000000 0.000000 0.000000 -2.201602 0.824237 28.121052 -6.254010 -10.685065 -0.585454 -12.907979 -30.690548 -23.518059 0.000000 0.000000 0.000000 7.125000 0.000000 0.000000 10.070681 6.228983 9.062782
